<svg width="252" height="76" viewBox="0 0 252 76" fill="none" xmlns="http://www.w3.org/2000/svg">
<path fill-rule="evenodd" clip-rule="evenodd" d="M71.4077 19.8761C65.2186 11.4611 55.247 6 44 6C25.2223 6 10 21.2223 10 40C10 58.7777 25.2223 74 44 74C47.4146 74 50.7116 73.4966 53.821 72.5601C49.0041 74.7687 43.6459 76 38 76C17.0132 76 0 58.9868 0 38C0 17.0132 17.0132 0 38 0C52.424 0 64.9711 8.03649 71.4077 19.8761Z" fill="white"/>
<path d="M57.8954 26.4814C43.5196 23.6806 18.2396 18.6471 11.937 27.9812C11.3738 29.6305 10.9042 31.1642 10.5 32.5C10.5975 30.7143 11.0998 29.221 11.937 27.9812C16.443 14.7859 26.9414 -5.80326 57.8954 8.4467C70.3692 14.0577 72.4482 20.8042 71.9285 23.476C71.7552 25.4796 68.7061 28.8858 57.8954 26.4814Z" fill="#ECECEC"/>
<path d="M207.505 17.5599C206.641 17.4959 206.137 17.4639 205.993 17.4639V16.9119C206.297 16.9119 207.033 16.7439 208.201 16.4079C209.369 16.0559 210.137 15.8799 210.505 15.8799V20.7759C211.241 20.3279 212.137 20.1039 213.193 20.1039C213.609 20.1039 214.041 20.1599 214.489 20.2719C214.937 20.3679 215.417 20.5519 215.929 20.8239C216.441 21.0799 216.897 21.4159 217.297 21.8319C217.697 22.2319 218.025 22.7679 218.281 23.4399C218.553 24.0959 218.689 24.8399 218.689 25.6719C218.689 27.4319 218.097 28.7999 216.913 29.7759C215.745 30.7519 214.329 31.2399 212.665 31.2399C211.593 31.2399 210.705 30.9839 210.001 30.4719C208.721 30.9839 207.889 31.2399 207.505 31.2399V17.5599ZM210.505 21.5439V29.9919C211.049 30.2799 211.721 30.4239 212.521 30.4239C213.385 30.4239 214.105 30.0159 214.681 29.1999C215.273 28.3679 215.569 27.1919 215.569 25.6719C215.569 24.2319 215.337 23.0799 214.873 22.2159C214.425 21.3519 213.785 20.9199 212.953 20.9199C211.977 20.9199 211.161 21.1279 210.505 21.5439Z" fill="white"/>
<path d="M219.645 30.9999V30.4959C220.509 30.4959 221.013 30.3359 221.157 30.0159V17.5599C220.293 17.4959 219.789 17.4639 219.645 17.4639V16.9119C219.949 16.9119 220.685 16.7439 221.853 16.4079C223.021 16.0559 223.789 15.8799 224.157 15.8799V30.0159C224.301 30.3359 224.805 30.4959 225.669 30.4959V30.9999H219.645Z" fill="white"/>
<path d="M229.782 25.0479C229.782 26.9359 230.03 28.3199 230.526 29.1999C231.038 30.0799 231.814 30.5199 232.854 30.5199C233.574 30.5199 234.126 30.1439 234.51 29.3919C234.894 28.6239 235.086 27.6159 235.086 26.3679C235.086 24.4159 234.854 23.0239 234.39 22.1919C233.942 21.3599 233.134 20.9439 231.966 20.9439C231.278 20.9439 230.742 21.3439 230.358 22.1439C229.974 22.9439 229.782 23.9119 229.782 25.0479ZM232.542 31.2399C230.734 31.2399 229.294 30.7119 228.222 29.6559C227.166 28.5999 226.638 27.2239 226.638 25.5279C226.638 24.0079 227.118 22.7439 228.078 21.7359C229.054 20.7119 230.486 20.1999 232.374 20.1999C234.278 20.1999 235.726 20.7039 236.718 21.7119C237.726 22.7199 238.23 24.0879 238.23 25.8159C238.23 27.3519 237.75 28.6399 236.79 29.6799C235.83 30.7199 234.414 31.2399 232.542 31.2399Z" fill="white"/>
<path d="M250.493 20.1999V30.3039C250.493 31.9039 250.021 33.2159 249.077 34.2399C248.149 35.2799 246.909 35.7999 245.357 35.7999C243.885 35.7999 242.717 35.6079 241.853 35.2239C240.989 34.8399 240.557 34.3279 240.557 33.6879C240.557 32.6639 240.989 32.1519 241.853 32.1519C242.173 32.1519 242.437 32.2639 242.645 32.4879C242.853 32.7119 242.957 32.9759 242.957 33.2799C242.957 33.7919 242.757 34.1279 242.357 34.2879C242.789 34.7199 243.709 34.9359 245.117 34.9359C245.853 34.9359 246.413 34.6159 246.797 33.9759C247.181 33.3519 247.405 32.2639 247.469 30.7119C246.797 31.0639 245.973 31.2399 244.997 31.2399C244.469 31.2399 243.925 31.1599 243.365 30.9999C242.821 30.8239 242.261 30.5439 241.685 30.1599C241.109 29.7759 240.637 29.2079 240.269 28.4559C239.917 27.6879 239.741 26.7919 239.741 25.7679C239.741 23.9919 240.293 22.6239 241.397 21.6639C242.501 20.6879 243.877 20.1999 245.525 20.1999C246.549 20.1999 247.413 20.4399 248.117 20.9199C249.317 20.4399 250.109 20.1999 250.493 20.1999ZM247.493 29.9439V29.4399V21.3519C246.997 21.1279 246.389 21.0159 245.669 21.0159C243.797 21.0159 242.861 22.5999 242.861 25.7679C242.861 26.6959 242.941 27.4959 243.101 28.1679C243.277 28.8239 243.493 29.3039 243.749 29.6079C244.021 29.9119 244.277 30.1279 244.517 30.2559C244.757 30.3679 244.997 30.4239 245.237 30.4239C246.101 30.4239 246.853 30.2639 247.493 29.9439Z" fill="white"/>
<path d="M30.0959 62.9998L30.2879 61.9918C32.0479 61.9918 33.1039 61.6718 33.4559 61.0318L37.4879 36.8878C37.2959 36.2478 36.3359 35.9278 34.6079 35.9278L34.7999 34.9198H54.1439L53.3759 39.5758H52.3679C52.4639 38.9038 52.5119 38.3598 52.5119 37.9438C52.5119 37.2078 52.3039 36.7438 51.8879 36.5518H41.9519L40.1279 47.5918H46.8479C47.5199 47.3358 47.9999 46.3278 48.2879 44.5678H49.2959L47.9999 52.2478H46.9919C47.1199 51.3518 47.1839 50.8078 47.1839 50.6158C47.1839 49.8798 46.9759 49.4158 46.5599 49.2238H39.8399L37.8239 61.3678H48.7679C49.5999 61.0478 50.4799 60.0398 51.4079 58.3438H52.3679L50.4479 62.9998H30.0959Z" fill="white"/>
<path d="M60.1349 36.1678C58.1509 36.0078 57.1429 35.9278 57.1109 35.9278L57.3029 34.8238C57.9109 34.8238 59.1589 34.4878 61.0469 33.8158C62.9349 33.1118 64.2469 32.7598 64.9829 32.7598L60.8069 57.9118C60.7429 58.4238 60.7109 58.7758 60.7109 58.9678C60.7109 59.8958 60.9189 60.6158 61.3349 61.1278C61.7829 61.6398 62.3909 61.8958 63.1589 61.8958L62.9669 62.9998C60.7269 62.9998 59.0469 62.7118 57.9269 62.1358C56.8389 61.5598 56.2949 60.6318 56.2949 59.3518C56.2949 59.1598 56.3269 58.8398 56.3909 58.3918L60.1349 36.1678Z" fill="white"/>
<path d="M87.9862 47.8318C87.9862 48.8238 87.5702 49.6398 86.7382 50.2798C85.9382 50.8878 84.1782 51.3838 81.4582 51.7678L72.1942 53.0158C72.1942 55.4158 72.7382 57.4638 73.8262 59.1598C74.9462 60.8238 76.3542 61.6558 78.0502 61.6558C80.8662 61.6558 83.2822 60.5998 85.2982 58.4878L86.3542 59.0638C85.1702 60.5678 83.7782 61.6878 82.1782 62.4238C80.5782 63.1278 78.5462 63.4798 76.0822 63.4798C73.7462 63.4798 71.7142 62.7918 69.9862 61.4158C68.2902 60.0398 67.4422 57.7678 67.4422 54.5998C67.4422 50.7918 68.4982 47.6398 70.6102 45.1438C72.7222 42.6478 75.6182 41.3998 79.2982 41.3998C82.2742 41.3998 84.4662 42.0718 85.8742 43.4158C87.2822 44.7278 87.9862 46.1998 87.9862 47.8318ZM72.2902 51.5278L79.4422 50.5678C82.2582 50.2158 83.6662 49.0798 83.6662 47.1598C83.6662 46.0718 83.2822 45.0798 82.5142 44.1838C81.7782 43.2878 80.5622 42.8398 78.8662 42.8398C77.5542 42.8398 76.2262 43.6558 74.8822 45.2878C73.5702 46.9198 72.7062 48.9998 72.2902 51.5278Z" fill="white"/>
<path d="M106.333 47.4958C106.333 46.7598 106.557 46.1998 107.005 45.8158C107.453 45.4318 107.901 45.2398 108.349 45.2398C108.221 43.6398 106.717 42.8398 103.837 42.8398C101.597 42.8398 99.6615 43.8318 98.0294 45.8158C96.4295 47.7678 95.6294 50.2638 95.6294 53.3038C95.6294 55.6078 96.1894 57.5758 97.3094 59.2078C98.4614 60.8398 99.8694 61.6558 101.533 61.6558C104.349 61.6558 106.765 60.5998 108.781 58.4878L109.837 59.0638C108.653 60.5678 107.261 61.6878 105.661 62.4238C104.061 63.1278 102.029 63.4798 99.5654 63.4798C97.2294 63.4798 95.1974 62.7918 93.4694 61.4158C91.7734 60.0398 90.9254 57.7678 90.9254 54.5998C90.9254 50.7918 92.0774 47.6398 94.3814 45.1438C96.6854 42.6478 99.7574 41.3998 103.597 41.3998C108.365 41.3998 110.749 42.8078 110.749 45.6238C110.749 46.5838 110.509 47.3678 110.029 47.9758C109.581 48.5838 108.973 48.8878 108.205 48.8878C106.957 48.8878 106.333 48.4238 106.333 47.4958Z" fill="white"/>
<path d="M123.687 34.9198L122.535 41.8798H126.663L126.423 43.3198H122.295L119.703 58.5838C119.639 59.0958 119.607 59.4638 119.607 59.6878C119.607 60.9998 120.311 61.6558 121.719 61.6558C122.295 61.6558 122.919 61.3838 123.591 60.8398C124.295 60.2638 124.839 59.4798 125.223 58.4878L126.279 59.0638C125.095 62.0078 122.919 63.4798 119.751 63.4798C116.615 63.4798 115.047 62.1678 115.047 59.5438C115.047 59.1278 115.095 58.6798 115.191 58.1998L117.687 43.3198H114.327L114.567 41.8798C116.423 41.8798 118.039 41.1918 119.415 39.8158C120.823 38.4078 121.671 36.7758 121.959 34.9198H123.687Z" fill="white"/>
<path d="M145.48 45.7678C145.032 45.7678 144.68 45.6238 144.424 45.3358C144.168 45.0478 143.992 44.7438 143.896 44.4238C143.8 44.0718 143.608 43.7518 143.32 43.4638C143.064 43.1758 142.712 43.0318 142.264 43.0318C141.24 43.0318 139.464 45.1758 136.936 49.4638L134.68 62.9998H130.36L133.384 44.8078C133.096 44.7758 132.728 44.7438 132.28 44.7118C131.832 44.6798 131.464 44.6478 131.176 44.6158C130.888 44.5838 130.632 44.5678 130.408 44.5678L130.6 43.4638C131.208 43.4638 132.456 43.1278 134.344 42.4558C136.232 41.7518 137.544 41.3998 138.28 41.3998L137.512 46.1038C139.72 42.9678 141.56 41.3998 143.032 41.3998C144.376 41.3998 145.48 41.6558 146.344 42.1678C147.24 42.6478 147.688 43.2078 147.688 43.8478C147.688 44.4558 147.464 44.9358 147.016 45.2878C146.568 45.6078 146.056 45.7678 145.48 45.7678Z" fill="white"/>
<path d="M158.044 35.1118C158.044 35.9758 157.74 36.7278 157.132 37.3678C156.556 38.0078 155.852 38.3278 155.02 38.3278C154.38 38.3278 153.852 38.1198 153.436 37.7038C153.02 37.2558 152.812 36.6958 152.812 36.0238C152.812 35.1598 153.1 34.4078 153.676 33.7678C154.252 33.0958 154.956 32.7598 155.788 32.7598C156.428 32.7598 156.956 32.9838 157.372 33.4318C157.82 33.8798 158.044 34.4398 158.044 35.1118ZM151.9 44.8078C151.612 44.7758 151.244 44.7438 150.796 44.7118C150.348 44.6798 149.98 44.6478 149.692 44.6158C149.404 44.5838 149.148 44.5678 148.924 44.5678L149.116 43.4638C149.724 43.4638 150.972 43.1278 152.86 42.4558C154.748 41.7518 156.06 41.3998 156.796 41.3998L153.196 62.9998H148.876L151.9 44.8078Z" fill="white"/>
<path d="M175.38 47.4958C175.38 46.7598 175.604 46.1998 176.052 45.8158C176.5 45.4318 176.948 45.2398 177.396 45.2398C177.268 43.6398 175.764 42.8398 172.884 42.8398C170.644 42.8398 168.708 43.8318 167.076 45.8158C165.476 47.7678 164.676 50.2638 164.676 53.3038C164.676 55.6078 165.236 57.5758 166.356 59.2078C167.508 60.8398 168.916 61.6558 170.58 61.6558C173.396 61.6558 175.812 60.5998 177.828 58.4878L178.884 59.0638C177.7 60.5678 176.308 61.6878 174.708 62.4238C173.108 63.1278 171.076 63.4798 168.612 63.4798C166.276 63.4798 164.244 62.7918 162.516 61.4158C160.82 60.0398 159.972 57.7678 159.972 54.5998C159.972 50.7918 161.124 47.6398 163.428 45.1438C165.732 42.6478 168.804 41.3998 172.644 41.3998C177.412 41.3998 179.796 42.8078 179.796 45.6238C179.796 46.5838 179.556 47.3678 179.076 47.9758C178.628 48.5838 178.02 48.8878 177.252 48.8878C176.004 48.8878 175.38 48.4238 175.38 47.4958Z" fill="white"/>
<path d="M187.598 54.5518C187.598 57.0798 188.11 58.9678 189.134 60.2158C190.19 61.4318 191.646 62.0398 193.502 62.0398C195.742 62.0398 197.55 60.8398 198.926 58.4398C200.334 56.0078 201.038 53.1598 201.038 49.8958C201.038 45.2238 199.006 42.8878 194.942 42.8878C192.766 42.8878 190.99 44.0718 189.614 46.4398C188.27 48.8078 187.598 51.5118 187.598 54.5518ZM192.638 63.4798C189.502 63.4798 187.102 62.6798 185.438 61.0798C183.774 59.4798 182.942 57.3038 182.942 54.5518C182.942 50.7118 184.078 47.5598 186.35 45.0958C188.622 42.6318 191.838 41.3998 195.998 41.3998C199.23 41.3998 201.646 42.1518 203.246 43.6558C204.878 45.1598 205.694 47.2558 205.694 49.9438C205.694 53.8478 204.558 57.0798 202.286 59.6398C200.014 62.1998 196.798 63.4798 192.638 63.4798Z" fill="white"/>
<path d="M217.016 44.9038C218.936 42.5358 221.48 41.3518 224.648 41.3518C228.744 41.3518 230.792 43.0478 230.792 46.4398C230.792 46.9838 230.744 47.5758 230.648 48.2158L229.016 57.9118C228.952 58.4238 228.92 58.7758 228.92 58.9678C228.92 59.8958 229.128 60.6158 229.544 61.1278C229.992 61.6398 230.6 61.8958 231.368 61.8958L231.176 62.9998C228.936 62.9998 227.256 62.7118 226.136 62.1358C225.048 61.5598 224.504 60.6318 224.504 59.3518C224.504 59.1598 224.536 58.8398 224.6 58.3918L226.376 47.8798C226.44 47.5598 226.472 47.0958 226.472 46.4878C226.472 44.1838 225.24 43.0318 222.776 43.0318C220.504 43.0318 218.44 44.5518 216.584 47.5918L213.992 62.9998H209.672L212.696 44.8078C212.408 44.7758 212.04 44.7438 211.592 44.7118C211.144 44.6798 210.776 44.6478 210.488 44.6158C210.2 44.5838 209.944 44.5678 209.72 44.5678L209.912 43.4638C210.52 43.4638 211.768 43.1278 213.656 42.4558C215.544 41.7518 216.856 41.3998 217.592 41.3998L217.016 44.9038Z" fill="white"/>
<path d="M244.704 43.0318C243.616 43.0318 242.576 43.3358 241.584 43.9438C240.624 44.5198 240.144 45.2078 240.144 46.0078C240.144 46.8078 240.512 47.5278 241.248 48.1678C241.984 48.8078 242.88 49.3678 243.936 49.8478C244.992 50.3278 246.048 50.8238 247.104 51.3358C248.16 51.8478 249.056 52.5198 249.792 53.3518C250.528 54.1838 250.896 55.1278 250.896 56.1838C250.896 58.4238 249.984 60.1998 248.16 61.5118C246.336 62.8238 244.176 63.4798 241.68 63.4798C240.528 63.4798 239.392 63.2398 238.272 62.7598C237.184 62.2798 236.576 62.0398 236.448 62.0398C236.064 62.0398 235.824 62.3598 235.728 62.9998H234.576L235.104 56.9038H236.16C236.16 58.1838 236.832 59.2878 238.176 60.2158C239.552 61.1118 240.96 61.5598 242.4 61.5598C242.976 61.5598 243.568 61.4958 244.176 61.3678C244.784 61.2398 245.392 60.9038 246 60.3598C246.64 59.7838 246.96 59.0318 246.96 58.1038C246.96 57.3358 246.608 56.6478 245.904 56.0398C245.232 55.4318 244.384 54.9198 243.36 54.5038C242.368 54.0558 241.376 53.5918 240.384 53.1118C239.392 52.6318 238.544 51.9758 237.84 51.1438C237.168 50.3118 236.832 49.3358 236.832 48.2158C236.832 46.0718 237.584 44.4078 239.088 43.2238C240.624 42.0078 242.528 41.3998 244.8 41.3998C245.888 41.3998 246.96 41.6398 248.016 42.1198C249.104 42.5998 249.728 42.8398 249.888 42.8398C250.304 42.8398 250.56 42.5198 250.656 41.8798H251.76L251.184 47.9758H250.128C250.128 46.6638 249.584 45.5118 248.496 44.5198C247.408 43.5278 246.144 43.0318 244.704 43.0318Z" fill="white"/>
</svg>
